<svg id="Layer_1" height="512" viewBox="0 0 128 128" width="512" xmlns="http://www.w3.org/2000/svg" data-name="Layer 1"><path d="m56.759 9.287c-5.637-1.857-12.821-.405-19.217 3.892-6.953 4.672-11.4 11.771-11.9 18.992a91.866 91.866 0 0 0 .986 19.389 40.9 40.9 0 0 0 -1.241 5.625 4.874 4.874 0 0 0 3.023 5.124l.048.269c1.245 6.949 2.42 13.512 2.37 19.217-.067 7.605 2.9 13.362 8.139 15.8a12.344 12.344 0 0 0 5.207 1.143 13.06 13.06 0 0 0 8.493-3.176c4.715-4.052 6.156-10.709 3.952-18.265-1.279-4.382-1.426-10.035-.475-17.2a4.879 4.879 0 0 0 3.989-3.8 29.43 29.43 0 0 0 -.626-13.3l.261-1.128c3.649-15.751 6.799-29.345-3.009-32.582zm-6.372 83.613a9.3 9.3 0 0 1 -9.944 1.514c-3.943-1.828-6.168-6.414-6.114-12.589.052-5.924-1.109-12.513-2.357-19.486a4.9 4.9 0 0 0 3.094-3.9c.019-.138 1.912-13.206 11.486-21.84 2.2 4.165 5.322 11.516 4.031 17.7a4.85 4.85 0 0 0 2.127 5.087c-1.07 7.868-.9 13.914.551 18.894 1.801 6.172.754 11.504-2.874 14.62zm6.322-37.33a1.379 1.379 0 1 1 -2.7-.564c1.7-8.113-2.684-17.265-5.444-22a1.75 1.75 0 0 0 -2.588-.5c-12.188 9.52-14.361 25.316-14.377 25.471a1.389 1.389 0 0 1 -1.256 1.2h-.005c-.027 0-.057 0-.086 0a1.71 1.71 0 0 0 -.306-.031 1.376 1.376 0 0 1 -1.084-1.515 38.653 38.653 0 0 1 1.217-5.433c.012-.038.024-.075.034-.113 1.909-6.492 6.515-17.171 17.106-23.8a1.366 1.366 0 0 1 .728-.21 1.388 1.388 0 0 1 .214.025l.023.005h.047a1.371 1.371 0 0 1 .841.544 51.256 51.256 0 0 1 6.919 14.6 1.744 1.744 0 0 0 .1.371 26.177 26.177 0 0 1 .616 11.952zm-4.795-28.96a4.819 4.819 0 0 0 -1.6-1.406l.438-3.44a1.75 1.75 0 1 0 -3.472-.441l-.432 3.39a4.824 4.824 0 0 0 -1.49.6 42.817 42.817 0 0 0 -16.046 18.95 76.651 76.651 0 0 1 -.176-11.853c.424-6.15 4.3-12.254 10.358-16.327 5.423-3.645 11.617-4.976 16.168-3.473 6.056 2 4.446 11.925 1.707 24.06a55.428 55.428 0 0 0 -5.455-10.06z"/><path d="m102.612 77.952a40.949 40.949 0 0 0 -1.241-5.624 91.76 91.76 0 0 0 .985-19.39c-.5-7.221-4.946-14.321-11.9-18.993-6.394-4.3-13.573-5.75-19.217-3.892-9.808 3.237-6.657 16.833-3.009 32.576l.26 1.124a29.429 29.429 0 0 0 -.625 13.3 4.878 4.878 0 0 0 3.989 3.8c.951 7.167.8 12.819-.475 17.2-2.2 7.556-.764 14.213 3.951 18.265a13.06 13.06 0 0 0 8.493 3.176 12.344 12.344 0 0 0 5.207-1.143c5.239-2.434 8.205-8.19 8.139-15.8-.05-5.709 1.127-12.278 2.373-19.233l.045-.252a4.874 4.874 0 0 0 3.025-5.114zm-30.274-44.574c4.547-1.5 10.744-.172 16.168 3.473 6.063 4.073 9.935 10.178 10.358 16.328a76.525 76.525 0 0 1 -.175 11.853 42.816 42.816 0 0 0 -16.046-18.95 4.821 4.821 0 0 0 -1.49-.6l-.431-3.39a1.75 1.75 0 1 0 -3.473.441l.438 3.44a4.824 4.824 0 0 0 -1.6 1.405 55.433 55.433 0 0 0 -5.457 10.062c-2.739-12.14-4.348-22.064 1.708-24.062zm6.594 16.037a1.372 1.372 0 0 1 .838-.544h.05.02a1.364 1.364 0 0 1 .946.184c10.591 6.629 15.2 17.306 17.1 23.8.01.041.023.08.035.119a38.539 38.539 0 0 1 1.219 5.426 1.374 1.374 0 0 1 -1.062 1.51 1.747 1.747 0 0 0 -.391.037h-.027a1.391 1.391 0 0 1 -1.257-1.2c-.021-.159-2.244-15.991-14.378-25.464a1.771 1.771 0 0 0 -1.407-.339 1.752 1.752 0 0 0 -1.182.837c-2.761 4.732-7.14 13.883-5.444 22a1.38 1.38 0 0 1 -1.066 1.631 1.383 1.383 0 0 1 -1.634-1.067c-2.598-12.44 7.221-26.345 7.64-26.93zm8.626 65.769a9.307 9.307 0 0 1 -9.944-1.514c-3.628-3.118-4.676-8.45-2.873-14.63 1.453-4.98 1.621-11.026.55-18.894a4.849 4.849 0 0 0 2.127-5.086c-1.291-6.182 1.835-13.532 4.031-17.7 9.567 8.632 11.467 21.708 11.485 21.84a4.9 4.9 0 0 0 3.095 3.9c-1.249 6.973-2.409 13.563-2.357 19.487.054 6.178-2.172 10.767-6.114 12.597z"/></svg>