<svg height="512" viewBox="0 0 192 192" width="512" xmlns="http://www.w3.org/2000/svg"><path d="m176 104a24.027 24.027 0 0 0 -24 24v40a8.009 8.009 0 0 1 -8 8h-8a8.009 8.009 0 0 1 -8-8v-16h8a8 8 0 0 0 8-8v-48.819a55.992 55.992 0 0 0 -40-95.181c-23.085 0-44.044 12.9-53.009 32h-12.991c-17.169 0-22.063-9.834-22.532-10.876a7.831 7.831 0 0 0 -8.793-5.169 8.108 8.108 0 0 0 -6.675 8.045v64a8.128 8.128 0 0 0 6.918 8.1 7.83 7.83 0 0 0 8.7-5.645c.55-1.43 4.692-10.455 21.382-10.455h13.951c8.063 15.429 24.735 27.58 42.588 31l10.811 35.336a8 8 0 0 0 7.65 5.664v16a24.027 24.027 0 0 0 24 24h8a24.027 24.027 0 0 0 24-24v-40a8.009 8.009 0 0 1 8-8h16v-16zm-72-24a24 24 0 1 1 24-24 24.027 24.027 0 0 1 -24 24z"/></svg>