<svg id="Layer_1" height="512" viewBox="0 0 128 128" width="512" xmlns="http://www.w3.org/2000/svg" data-name="Layer 1"><path d="m96.555 4.75h-62.363a11.764 11.764 0 0 0 -11.75 11.75v105a1.75 1.75 0 0 0 1.75 1.75h65.108a1.75 1.75 0 0 0 1.75-1.75v-15.942h12.755a1.75 1.75 0 0 0 1.75-1.75v-90.056a9.013 9.013 0 0 0 -9-9.002zm-9 103.308h-61.613v-2.5h61.61zm3.5-20.192h11v2.5h-11zm11-74.113v70.612h-11v-70.613a5.5 5.5 0 0 1 11 0zm-67.863-5.503h55.254a8.947 8.947 0 0 0 -1.893 5.5v88.306h-61.611v-85.556a8.26 8.26 0 0 1 8.25-8.25zm-8.25 111.5v-8.192h61.61v8.192zm65.11-17.692v-8.193h11v8.192z"/></svg>